<svg width="32" height="32" viewBox="0 0 32 32" fill="none" xmlns="http://www.w3.org/2000/svg">
<path d="M7 10.2826C6.58579 10.2826 6.25 10.6184 6.25 11.0326C6.25 11.4468 6.58579 11.7826 7 11.7826V10.2826ZM25 11.7826C25.4142 11.7826 25.75 11.4468 25.75 11.0326C25.75 10.6184 25.4142 10.2826 25 10.2826V11.7826ZM9 11.0326V10.2826H8.25V11.0326H9ZM23 11.0326H23.75V10.2826H23V11.0326ZM22.3418 20.8303L23.0624 21.0383L22.3418 20.8303ZM17.724 24.8553L17.8489 25.5949L17.724 24.8553ZM14.276 24.8553L14.401 24.1158L14.401 24.1158L14.276 24.8553ZM14.1183 24.8287L13.9933 25.5682H13.9933L14.1183 24.8287ZM9.65815 20.8303L8.93757 21.0383L9.65815 20.8303ZM17.8817 24.8287L17.7568 24.0892L17.8817 24.8287ZM11.8425 9.48939L12.5233 9.80406L11.8425 9.48939ZM12.818 8.18112L12.3175 7.62258V7.62258L12.818 8.18112ZM14.2779 7.30696L14.5389 8.01009L14.2779 7.30696ZM17.7221 7.30696L17.9831 6.60384V6.60384L17.7221 7.30696ZM20.1575 9.48939L20.8383 9.17471L20.1575 9.48939ZM7 11.7826H25V10.2826H7V11.7826ZM17.7568 24.0892L17.599 24.1158L17.8489 25.5949L18.0067 25.5682L17.7568 24.0892ZM14.401 24.1158L14.2432 24.0892L13.9933 25.5682L14.151 25.5949L14.401 24.1158ZM22.25 11.0326V16.1758H23.75V11.0326H22.25ZM9.75 16.1759V11.0326H8.25V16.1759H9.75ZM22.25 16.1758C22.25 17.6806 22.0383 19.1776 21.6212 20.6223L23.0624 21.0383C23.5185 19.4583 23.75 17.8212 23.75 16.1758H22.25ZM17.599 24.1158C16.5404 24.2947 15.4596 24.2947 14.401 24.1158L14.151 25.5949C15.3751 25.8017 16.6248 25.8017 17.8489 25.5949L17.599 24.1158ZM14.2432 24.0892C12.4052 23.7786 10.9016 22.4335 10.3787 20.6223L8.93757 21.0383C9.61878 23.3981 11.5817 25.1607 13.9933 25.5682L14.2432 24.0892ZM10.3787 20.6223C9.9617 19.1776 9.75 17.6806 9.75 16.1759H8.25C8.25 17.8212 8.48148 19.4583 8.93757 21.0383L10.3787 20.6223ZM18.0067 25.5682C20.4183 25.1607 22.3812 23.3981 23.0624 21.0383L21.6212 20.6223C21.0984 22.4335 19.5947 23.7786 17.7568 24.0892L18.0067 25.5682ZM12.25 11.0326C12.25 10.6137 12.3419 10.1965 12.5233 9.80406L11.1618 9.17471C10.8908 9.76079 10.75 10.3924 10.75 11.0326H12.25ZM12.5233 9.80406C12.7049 9.41133 12.9736 9.04881 13.3185 8.73966L12.3175 7.62258C11.8267 8.06235 11.4325 8.58893 11.1618 9.17471L12.5233 9.80406ZM13.3185 8.73966C13.6637 8.43037 14.0778 8.18126 14.5389 8.01009L14.0169 6.60384C13.3862 6.83798 12.8081 7.18295 12.3175 7.62258L13.3185 8.73966ZM14.5389 8.01009C15.0001 7.8389 15.4968 7.75 16 7.75V6.25C15.3213 6.25 14.6477 6.36972 14.0169 6.60384L14.5389 8.01009ZM16 7.75C16.5032 7.75 16.9999 7.8389 17.4611 8.01009L17.9831 6.60384C17.3523 6.36972 16.6787 6.25 16 6.25V7.75ZM17.4611 8.01009C17.9222 8.18126 18.3363 8.43037 18.6815 8.73966L19.6825 7.62258C19.1919 7.18295 18.6138 6.83798 17.9831 6.60384L17.4611 8.01009ZM18.6815 8.73966C19.0264 9.04881 19.2951 9.41133 19.4767 9.80407L20.8383 9.17471C20.5675 8.58893 20.1733 8.06235 19.6825 7.62258L18.6815 8.73966ZM19.4767 9.80406C19.6581 10.1965 19.75 10.6137 19.75 11.0326H21.25C21.25 10.3924 21.1092 9.7608 20.8383 9.17471L19.4767 9.80406ZM9 11.7826H23V10.2826H9V11.7826Z" fill="#060606" fill-opacity="0.5"/>
<path d="M14 16V20M18 16V20" stroke="#060606" stroke-opacity="0.5" stroke-width="1.5" stroke-linecap="round"/>
</svg>
