<svg width="196" height="208" viewBox="0 0 196 208" fill="none" xmlns="http://www.w3.org/2000/svg">
<path d="M119.76 35.1336C120.169 35.1336 120.555 34.8896 120.717 34.4876C120.931 33.9586 120.676 33.3556 120.147 33.1416C119.353 32.7766 114.033 29.4876 111.473 27.6766C113.874 27.4066 118.367 27.1296 122.478 26.9686C123.048 26.9446 123.492 26.4646 123.47 25.8956C123.448 25.3246 122.908 24.9196 122.398 24.9026C108.325 25.4576 108.298 25.9976 108.243 27.0736C108.154 28.8326 119.26 35.0126 119.373 35.0586C119.499 35.1086 119.631 35.1336 119.76 35.1336Z" fill="#060606"/>
<path d="M135.516 31.4196C135.516 31.4196 130.568 16.0666 123.153 20.9786C112.88 27.7826 115.108 58.1686 138.001 59.0496C160.894 59.9306 164.101 40.4686 164.101 40.4686L151.999 40.7616C151.999 40.7616 158.296 31.2776 155.977 25.4186C153.658 19.5596 148.625 26.5276 148.625 26.5276C148.625 26.5276 152.531 10.6536 146.218 11.8266C139.906 12.9996 135.516 31.4196 135.516 31.4196Z" fill="#FD5900"/>
<path d="M124.981 32.1046C125.085 32.1046 125.192 32.0946 125.299 32.0766C127.564 31.6586 128.919 27.7876 129.28 26.6096C129.447 26.0646 129.141 25.4876 128.596 25.3206C128.049 25.1426 127.473 25.4576 127.305 26.0026C126.818 27.5866 125.884 29.4036 125.197 29.9126C124.975 29.0816 125.023 26.8846 125.33 24.8586C125.416 24.2956 125.028 23.7696 124.465 23.6826C123.896 23.5956 123.375 23.9836 123.289 24.5476C122.963 26.6756 122.604 30.4306 123.851 31.6406C124.165 31.9456 124.558 32.1046 124.981 32.1046Z" fill="#060606"/>
<path d="M148.114 41.6636C148.434 41.6636 148.748 41.5166 148.951 41.2376C149.432 40.5736 153.611 34.6546 152.271 31.0156C151.827 29.8116 150.994 29.5326 150.536 29.4746C149.215 29.3036 147.639 30.6026 146.405 31.9766C146.111 27.9696 145.203 25.8956 143.694 25.7996C143.052 25.7716 141.097 25.6406 137.105 37.6396C136.925 38.1826 137.218 38.7676 137.76 38.9466C138.302 39.1306 138.887 38.8336 139.066 38.2926C140.514 33.9386 142.612 28.9736 143.627 27.9616C143.978 28.6616 144.424 31.7606 144.443 34.8366C144.446 35.2866 144.741 35.6836 145.17 35.8166C145.601 35.9476 146.067 35.7886 146.324 35.4196C147.718 33.4126 149.599 31.5456 150.246 31.5236C150.247 31.5436 150.286 31.6066 150.332 31.7296C151.059 33.7046 148.845 37.8646 147.279 40.0236C146.944 40.4856 147.047 41.1316 147.509 41.4656C147.691 41.5996 147.904 41.6636 148.114 41.6636Z" fill="#060606"/>
<path d="M136.361 54.9706C142.052 54.9706 146.694 52.3786 146.946 52.2346C147.441 51.9526 147.615 51.3226 147.333 50.8286C147.054 50.3306 146.421 50.1566 145.926 50.4396C145.853 50.4776 138.59 54.5066 131.637 52.1546C127.448 50.7326 124.162 47.2766 121.871 41.8796C121.647 41.3546 121.036 41.1086 120.516 41.3326C119.99 41.5546 119.745 42.1616 119.968 42.6866C122.503 48.6546 126.211 52.4996 130.988 54.1156C132.815 54.7326 134.636 54.9706 136.361 54.9706Z" fill="#060606"/>
<path d="M16.204 140.721L15.7478 141.235C15.4101 141.627 15.4557 142.22 15.85 142.56C16.2429 142.899 16.8569 142.857 17.1752 142.465L17.5979 141.987C18.2289 141.293 18.9298 140.58 19.712 139.848C20.0984 139.476 20.1077 138.899 19.7533 138.521C19.3969 138.141 18.8028 138.121 18.4252 138.474C17.6319 139.216 16.8849 139.972 16.204 140.721ZM13.5186 144.209C13.482 144.249 13.4488 144.291 13.4198 144.34C12.6631 145.541 12.0828 146.741 11.6976 147.904C11.5345 148.396 11.801 148.929 12.2938 149.095C12.7866 149.261 13.3158 149 13.4813 148.505C13.8205 147.485 14.3351 146.421 15.012 145.345C15.2874 144.907 15.1549 144.328 14.7149 144.049C14.3222 143.801 13.8182 143.878 13.5186 144.209ZM21.2025 136.075C20.8987 136.41 20.8752 136.926 21.1698 137.292C21.4953 137.697 22.0872 137.764 22.491 137.442C22.9558 137.069 23.4383 136.689 23.9418 136.306C24.4511 135.922 24.9431 135.576 25.421 135.268C25.8552 134.988 25.9829 134.409 25.7001 133.971C25.418 133.535 24.8358 133.407 24.4015 133.687C23.883 134.018 23.3513 134.392 22.8025 134.809C22.284 135.203 21.7884 135.591 21.3112 135.973C21.2716 136.004 21.2348 136.039 21.2025 136.075ZM27.5674 132.2C27.3494 132.44 27.2631 132.788 27.3711 133.12C27.5319 133.613 28.063 133.885 28.5557 133.726C29.7247 133.351 30.7872 133.255 31.8049 133.435C32.3182 133.526 32.8059 133.185 32.8902 132.676C32.9783 132.165 32.6356 131.678 32.1249 131.587C30.8161 131.355 29.4187 131.473 27.9723 131.939C27.8109 131.991 27.6733 132.083 27.5674 132.2ZM11.3294 151.257C11.1711 151.431 11.0789 151.665 11.0889 151.92C11.1415 153.294 11.4758 154.637 12.0846 155.91C12.3098 156.379 12.8701 156.58 13.3375 156.357C13.8095 156.135 14.0053 155.577 13.78 155.107C13.2825 154.068 13.0095 152.974 12.967 151.858C12.9478 151.34 12.5115 150.934 11.9921 150.95C11.728 150.959 11.4938 151.075 11.3294 151.257ZM34.632 133.474C34.6186 133.489 34.6058 133.503 34.5932 133.52C34.2704 133.925 34.3384 134.517 34.7447 134.839C34.9019 134.965 35.0555 135.097 35.2068 135.234C35.8513 135.818 36.4819 136.53 37.1342 137.412C37.4436 137.829 38.0317 137.92 38.449 137.613C38.8666 137.311 38.953 136.717 38.6436 136.3C37.9159 135.317 37.2041 134.515 36.465 133.845C36.2839 133.681 36.0986 133.523 35.9132 133.374C35.523 133.063 34.9615 133.111 34.632 133.474ZM14.3988 157.938C14.0706 158.3 14.0765 158.861 14.4215 159.219C14.6807 159.487 14.9437 159.741 15.2079 159.98C15.9004 160.608 16.6695 161.199 17.4939 161.738C17.9285 162.023 18.5012 161.905 18.794 161.469C19.0754 161.035 18.9525 160.454 18.5174 160.17C17.7749 159.683 17.0836 159.152 16.4654 158.592C16.231 158.38 15.9992 158.157 15.7719 157.92C15.4106 157.546 14.8156 157.532 14.4427 157.891C14.4275 157.906 14.4128 157.922 14.3988 157.938ZM39.2231 139.391C38.9588 139.683 38.8979 140.122 39.1054 140.485C39.6947 141.52 40.2741 142.622 40.8543 143.767C41.089 144.232 41.6543 144.418 42.1174 144.187C42.5779 143.953 42.765 143.389 42.5298 142.927C41.9364 141.751 41.3427 140.621 40.7372 139.561C40.4788 139.109 39.9052 138.951 39.4556 139.207C39.3654 139.256 39.2883 139.319 39.2231 139.391ZM42.6632 146.094C42.4135 146.369 42.3427 146.779 42.5176 147.134C43.0655 148.253 43.6221 149.388 44.1992 150.521C44.435 150.984 45.001 151.17 45.4628 150.937C45.922 150.705 46.1097 150.14 45.8731 149.676C45.3018 148.554 44.7481 147.426 44.2058 146.318C43.9768 145.849 43.4143 145.654 42.9483 145.881C42.8371 145.934 42.7411 146.008 42.6632 146.094ZM46.1113 152.79C45.8482 153.081 45.7866 153.518 45.9921 153.88C46.6729 155.09 47.3254 156.162 47.9839 157.152C48.2716 157.586 48.8554 157.706 49.2868 157.421C49.7185 157.141 49.8361 156.554 49.549 156.121C48.9149 155.166 48.2864 154.134 47.6269 152.964C47.3722 152.51 46.7986 152.349 46.3468 152.602C46.2555 152.653 46.1777 152.717 46.1113 152.79ZM50.3109 159.029C50.0021 159.37 49.9844 159.896 50.2898 160.261C51.0572 161.178 51.851 162.008 52.6509 162.733L53.0214 163.061C53.415 163.402 53.9705 163.386 54.3467 162.968C54.6844 162.577 54.6407 161.984 54.2471 161.643L53.9097 161.345C53.174 160.678 52.4407 159.91 51.7296 159.061C51.3947 158.661 50.8028 158.608 50.4054 158.94C50.3714 158.968 50.3395 158.998 50.3109 159.029ZM81.794 125.595C81.5005 125.919 81.4665 126.417 81.7392 126.784C82.0486 127.202 82.6379 127.291 83.0539 126.983C83.8625 126.386 84.9224 126.673 85.6691 127.019C86.1402 127.239 86.7011 127.041 86.9152 126.565C87.1316 126.094 86.9243 125.536 86.4526 125.317C84.7439 124.524 83.1378 124.579 81.9312 125.472C81.8803 125.508 81.8342 125.551 81.794 125.595ZM80.5329 128.949C80.3715 129.128 80.2772 129.369 80.2926 129.629C80.3583 130.808 80.6812 132.131 81.252 133.564C81.445 134.046 81.9918 134.284 82.4724 134.093C82.9552 133.905 83.1902 133.358 82.9971 132.876C82.5087 131.651 82.2221 130.496 82.1697 129.535C82.1396 129.017 81.6972 128.619 81.179 128.645C80.9221 128.657 80.6931 128.773 80.5329 128.949ZM88.3414 127.808C88.0174 128.165 88.0184 128.718 88.3545 129.078C89.1215 129.9 89.823 130.862 90.4371 131.94C90.6955 132.392 91.269 132.551 91.7187 132.295C92.1724 132.044 92.3246 131.464 92.0682 131.015C91.3799 129.81 90.5917 128.728 89.7246 127.8C89.3695 127.42 88.7747 127.397 88.397 127.75C88.3787 127.769 88.3591 127.788 88.3414 127.808ZM56.0185 163.87C55.9686 163.925 55.926 163.985 55.889 164.053C55.6428 164.508 55.8134 165.079 56.2693 165.327C57.4479 165.967 58.696 166.458 59.98 166.786C60.4824 166.913 60.9942 166.614 61.1199 166.108C61.2452 165.606 60.9392 165.094 60.4368 164.967C59.3041 164.678 58.2012 164.244 57.1618 163.679C56.7735 163.467 56.3017 163.557 56.0185 163.87ZM83.1378 135.936C82.865 136.237 82.8121 136.693 83.0364 137.058C83.6957 138.126 84.4586 139.192 85.3014 140.222C85.6313 140.625 86.2222 140.685 86.6237 140.357C87.0328 140.026 87.0815 139.437 86.7529 139.036C85.9617 138.071 85.2496 137.077 84.6331 136.077C84.3604 135.636 83.7807 135.495 83.3396 135.766C83.2648 135.815 83.1957 135.872 83.1378 135.936ZM125.781 91.7015C125.559 91.9462 125.475 92.3028 125.591 92.6379C125.761 93.1288 126.296 93.3908 126.787 93.2237C127.19 93.0858 128.091 93.2682 129.416 94.1956C129.844 94.4935 130.432 94.3855 130.725 93.9676C131.02 93.5425 130.915 92.9578 130.49 92.6597C128.801 91.4765 127.306 91.0566 126.171 91.4451C126.015 91.4981 125.884 91.5879 125.781 91.7015ZM123.906 94.7901C123.786 94.9218 123.703 95.0873 123.675 95.2765C123.471 96.6224 123.726 98.0343 124.43 99.4702C124.659 99.9377 125.221 100.131 125.687 99.9044C126.152 99.6793 126.347 99.1166 126.117 98.6497C125.583 97.5644 125.388 96.5282 125.532 95.5662C125.609 95.0534 125.257 94.5743 124.745 94.494C124.421 94.4428 124.11 94.5649 123.906 94.7901ZM63.2272 165.724C63.0786 165.888 62.9875 166.104 62.985 166.342C62.9804 166.861 63.3965 167.287 63.9159 167.295C65.1672 167.314 66.4813 167.202 67.8257 166.968C68.3347 166.877 68.6766 166.392 68.583 165.879C68.4915 165.369 68.0018 165.027 67.4914 165.116C66.2633 165.333 65.0651 165.433 63.9331 165.418C63.6534 165.413 63.4014 165.532 63.2272 165.724ZM92.0774 134.283C91.8588 134.524 91.7733 134.874 91.8826 135.205C92.2548 136.337 92.5178 137.509 92.6608 138.689C92.7235 139.203 93.1921 139.573 93.7072 139.512C94.2238 139.453 94.5864 138.985 94.5268 138.47C94.3686 137.169 94.078 135.875 93.6675 134.627C93.5048 134.133 92.9731 133.862 92.4805 134.023C92.3197 134.075 92.1834 134.166 92.0774 134.283ZM160.406 60.1708C160.377 60.2038 160.348 60.2405 160.323 60.2797C160.035 60.7096 160.152 61.2925 160.582 61.5819C160.593 61.5892 161.578 62.255 162.937 63.4865L163.368 63.8847C163.748 64.2409 164.343 64.2227 164.696 63.8457C165.081 63.4479 165.03 62.8742 164.651 62.518L164.195 62.0977C162.724 60.7653 161.668 60.0545 161.624 60.0244C161.231 59.7615 160.713 59.8321 160.406 60.1708ZM87.8858 141.761C87.5466 142.135 87.567 142.716 87.9363 143.07C88.1612 143.284 88.3885 143.497 88.6216 143.708C89.3478 144.366 90.1114 144.997 90.8906 145.583C91.2952 145.888 91.9015 145.846 92.1788 145.432C92.1507 145.537 92.1227 145.642 92.0921 145.747C91.9478 146.243 92.2364 146.766 92.7339 146.912C93.0895 147.015 93.4563 146.901 93.6897 146.646C93.5775 147.052 93.75 147.497 94.1348 147.716C95.2759 148.366 96.4565 148.933 97.645 149.404C98.1282 149.597 98.6751 149.366 98.8616 148.877C99.0503 148.395 98.8127 147.849 98.3283 147.658C97.2232 147.219 96.1225 146.69 95.0564 146.084C94.667 145.862 94.1866 145.948 93.8992 146.265C94.2644 145.003 94.5009 143.703 94.6048 142.404C94.6475 141.889 94.2608 141.433 93.7441 141.39C93.2241 141.344 92.7713 141.726 92.732 142.246C92.668 143.048 92.5455 143.852 92.371 144.645C92.3256 144.428 92.2038 144.226 92.0141 144.083C91.2798 143.531 90.562 142.937 89.8783 142.318C89.6588 142.119 89.4423 141.917 89.2316 141.715C88.8549 141.355 88.2607 141.367 87.9027 141.741C87.8979 141.747 87.8918 141.754 87.8858 141.761ZM132.04 95.3222C131.721 95.6744 131.715 96.2173 132.042 96.5805C132.818 97.4415 133.56 98.4077 134.251 99.4541C134.537 99.8887 135.12 100.01 135.552 99.7267C135.985 99.4431 136.104 98.8602 135.817 98.4269C135.076 97.3029 134.274 96.2591 133.437 95.3276C133.088 94.9423 132.495 94.9095 132.11 95.2552C132.084 95.2763 132.062 95.2986 132.04 95.3222ZM126.795 101.448C126.464 101.815 126.474 102.382 126.828 102.738C127.042 102.954 127.266 103.169 127.499 103.38C128.217 104.031 129.024 104.656 129.894 105.235C130.326 105.522 130.902 105.41 131.196 104.976C131.482 104.545 131.363 103.962 130.931 103.675C130.138 103.148 129.406 102.581 128.757 101.993C128.548 101.804 128.351 101.615 128.16 101.422C127.794 101.053 127.198 101.048 126.832 101.412C126.819 101.423 126.807 101.435 126.795 101.448ZM70.597 164.49C70.3783 164.731 70.2928 165.081 70.4028 165.414C70.5662 165.907 71.0972 166.177 71.5897 166.016C72.7446 165.64 73.9494 165.172 75.1747 164.628C75.6459 164.414 75.8587 163.862 75.6448 163.388C75.4315 162.913 74.8758 162.7 74.4019 162.91C73.2371 163.429 72.0922 163.874 70.9981 164.229C70.8399 164.283 70.7029 164.373 70.597 164.49ZM77.448 161.472C77.1873 161.76 77.1254 162.192 77.3231 162.552C77.5728 163.009 78.1448 163.177 78.5994 162.929C79.7565 162.298 80.862 161.64 81.8826 160.974C82.3229 160.698 82.4379 160.111 82.152 159.674C81.8674 159.24 81.2841 159.117 80.852 159.4C79.8704 160.039 78.8094 160.671 77.6941 161.278C77.5984 161.331 77.5162 161.397 77.448 161.472ZM165.9 65.3091C165.59 65.6506 165.574 66.1779 165.88 66.542C166.675 67.4916 167.403 68.4771 168.04 69.4753C168.319 69.9121 168.901 70.0426 169.337 69.766C169.773 69.4901 169.903 68.9092 169.622 68.4692C168.94 67.4043 168.165 66.3508 167.317 65.3407C166.983 64.9417 166.389 64.8884 165.993 65.2211C165.96 65.2484 165.928 65.2782 165.9 65.3091ZM90.9179 148.854C90.8631 148.914 90.8158 148.983 90.7772 149.058C90.249 150.096 89.6119 151.12 88.8831 152.099C88.5756 152.515 88.6629 153.104 89.08 153.414C89.4973 153.725 90.0718 153.63 90.3952 153.225C91.186 152.16 91.879 151.048 92.4531 149.914C92.688 149.453 92.5029 148.887 92.0393 148.651C91.6524 148.453 91.195 148.548 90.9179 148.854ZM83.7108 157.367C83.4075 157.702 83.384 158.218 83.678 158.585C84.0029 158.99 84.5948 159.057 84.9986 158.735C86.0302 157.908 86.9961 157.042 87.8686 156.161C88.2098 155.752 88.2268 155.198 87.8557 154.833C87.4859 154.468 86.8911 154.471 86.5264 154.838C85.7074 155.668 84.7956 156.485 83.8207 157.265C83.7805 157.296 83.7436 157.331 83.7108 157.367ZM136.2 101.578C135.951 101.853 135.88 102.263 136.055 102.618C136.587 103.708 137.054 104.841 137.445 105.987C137.613 106.478 138.147 106.743 138.637 106.577C139.129 106.411 139.39 105.878 139.223 105.389C138.806 104.169 138.309 102.963 137.742 101.802C137.515 101.335 136.951 101.138 136.485 101.365C136.374 101.418 136.278 101.492 136.2 101.578ZM133.004 105.645C132.941 105.714 132.888 105.795 132.846 105.885C132.632 106.357 132.841 106.913 133.313 107.13C134.48 107.664 135.706 108.127 136.957 108.501C137.456 108.65 137.976 108.371 138.125 107.872C138.27 107.374 137.987 106.852 137.489 106.703C136.32 106.352 135.177 105.922 134.089 105.423C133.708 105.249 133.271 105.35 133.004 105.645ZM169.931 71.6461C169.688 71.9136 169.613 72.3092 169.771 72.6603C170.274 73.7767 170.68 74.917 170.977 76.0514C171.109 76.5544 171.622 76.8567 172.124 76.7264C172.628 76.5985 172.928 76.0869 172.794 75.584C172.47 74.3472 172.029 73.1063 171.484 71.8959C171.27 71.4218 170.714 71.2091 170.241 71.4192C170.12 71.4763 170.015 71.5533 169.931 71.6461ZM100.879 149.024C100.775 149.139 100.698 149.281 100.66 149.443C100.547 149.949 100.864 150.454 101.37 150.569C102.644 150.865 103.943 151.057 105.233 151.142C105.75 151.177 106.197 150.788 106.228 150.266C106.259 149.749 105.865 149.302 105.347 149.268C104.158 149.189 102.959 149.011 101.785 148.741C101.44 148.661 101.1 148.78 100.879 149.024ZM138.623 108.682C138.43 108.895 138.338 109.194 138.4 109.498C138.644 110.689 138.812 111.901 138.901 113.098C138.939 113.616 139.388 114.006 139.906 113.972C140.423 113.935 140.812 113.49 140.774 112.971C140.68 111.693 140.501 110.402 140.242 109.132C140.24 109.123 140.239 109.116 140.238 109.109C140.373 109.242 140.549 109.335 140.749 109.367C142.033 109.57 143.335 109.684 144.62 109.709C145.139 109.717 145.565 109.304 145.572 108.787C145.578 108.268 145.164 107.84 144.645 107.829C143.446 107.807 142.232 107.701 141.034 107.512C140.52 107.43 140.042 107.777 139.962 108.292C139.945 108.413 139.949 108.531 139.975 108.644C139.76 108.434 139.448 108.329 139.132 108.394C138.928 108.434 138.753 108.539 138.623 108.682ZM171.82 78.886C171.653 79.0702 171.56 79.3211 171.581 79.5878C171.675 80.7659 171.664 81.97 171.547 83.1683C171.496 83.6843 171.874 84.1468 172.39 84.1986C172.907 84.2523 173.364 83.8737 173.416 83.3615C173.545 82.0533 173.557 80.7377 173.454 79.4487C173.412 78.9306 172.959 78.5437 172.443 78.5814C172.194 78.5994 171.976 78.7139 171.82 78.886ZM108.343 149.517C108.172 149.706 108.079 149.965 108.106 150.239C108.158 150.755 108.618 151.133 109.135 151.084C110.407 150.962 111.698 150.735 112.97 150.41C113.472 150.281 113.774 149.77 113.64 149.267C113.51 148.765 112.995 148.461 112.494 148.591C111.316 148.894 110.123 149.104 108.947 149.216C108.705 149.238 108.494 149.35 108.343 149.517ZM139.166 116.154C139.028 116.305 138.94 116.505 138.926 116.725C138.856 117.923 138.706 119.135 138.482 120.328C138.386 120.837 138.721 121.33 139.23 121.427C139.742 121.528 140.231 121.194 140.328 120.684C140.568 119.414 140.727 118.122 140.803 116.846C140.832 116.328 140.437 115.882 139.918 115.849C139.623 115.83 139.351 115.949 139.166 116.154ZM147.684 107.942C147.507 108.138 147.414 108.407 147.45 108.691C147.517 109.206 147.988 109.57 148.503 109.506C149.792 109.346 151.075 109.089 152.316 108.744C152.816 108.606 153.104 108.087 152.962 107.587C152.822 107.088 152.301 106.796 151.802 106.934C150.652 107.256 149.46 107.495 148.261 107.643C148.03 107.671 147.829 107.782 147.684 107.942ZM171.107 86.3152C171.011 86.4208 170.937 86.551 170.898 86.699C170.597 87.8234 170.196 88.9699 169.709 90.1062C169.505 90.5818 169.726 91.1347 170.203 91.3415C170.68 91.5464 171.235 91.328 171.435 90.8532C171.958 89.6354 172.387 88.4052 172.712 87.1953C172.846 86.6947 172.548 86.1782 172.047 86.0414C171.696 85.9446 171.336 86.0618 171.107 86.3152ZM115.581 147.674C115.345 147.935 115.267 148.32 115.412 148.666C115.613 149.145 116.164 149.373 116.642 149.175C117.801 148.695 118.968 148.123 120.109 147.474C120.556 147.212 120.714 146.644 120.454 146.194C120.196 145.742 119.622 145.584 119.172 145.84C118.099 146.452 117.002 146.989 115.915 147.44C115.785 147.495 115.671 147.575 115.581 147.674ZM137.779 123.505C137.694 123.6 137.625 123.714 137.583 123.845C137.219 124.979 136.776 126.119 136.267 127.234C136.051 127.705 136.262 128.263 136.734 128.48C137.206 128.696 137.759 128.487 137.977 128.02C138.516 126.839 138.985 125.631 139.372 124.429C139.531 123.935 139.26 123.405 138.765 123.244C138.402 123.125 138.02 123.239 137.779 123.505ZM154.88 105.927C154.638 106.195 154.563 106.593 154.723 106.944C154.94 107.418 155.496 107.628 155.968 107.416C157.14 106.887 158.289 106.262 159.379 105.558C159.815 105.279 159.936 104.695 159.654 104.26C159.369 103.823 158.788 103.698 158.353 103.978C157.341 104.632 156.277 105.212 155.189 105.702C155.068 105.758 154.964 105.834 154.88 105.927ZM122.093 144C121.803 144.32 121.766 144.81 122.029 145.177C122.332 145.598 122.92 145.698 123.34 145.396C124.333 144.685 125.345 143.886 126.344 143.022C126.749 142.683 126.777 142.092 126.436 141.698C126.096 141.304 125.503 141.261 125.111 141.599C124.154 142.427 123.189 143.19 122.242 143.867C122.186 143.907 122.136 143.952 122.093 144ZM168.191 93.1878C168.147 93.2362 168.108 93.2895 168.073 93.3478C167.493 94.352 166.825 95.3823 166.088 96.4106C165.786 96.8315 165.885 97.4178 166.307 97.7218C166.729 98.0258 167.306 97.9448 167.618 97.5105C168.391 96.4328 169.092 95.3495 169.703 94.2936C169.961 93.8445 169.807 93.2699 169.357 93.0096C168.965 92.782 168.481 92.8678 168.191 93.1878ZM134.69 130.311C134.648 130.357 134.61 130.407 134.577 130.463C133.967 131.498 133.291 132.526 132.571 133.515C132.266 133.934 132.36 134.52 132.78 134.827C133.201 135.135 133.789 135.05 134.092 134.624C134.849 133.587 135.557 132.51 136.197 131.424C136.46 130.978 136.31 130.4 135.862 130.136C135.472 129.905 134.982 129.988 134.69 130.311ZM161.159 101.888C160.846 102.235 160.834 102.77 161.15 103.134C161.492 103.527 162.085 103.57 162.475 103.23C163.371 102.454 164.241 101.601 165.061 100.697L165.216 100.523C165.564 100.139 165.533 99.5455 165.147 99.196C164.762 98.8465 164.168 98.8743 163.82 99.2581L163.651 99.4482C162.896 100.282 162.079 101.081 161.24 101.81C161.211 101.835 161.184 101.862 161.159 101.888ZM127.764 139.121C127.43 139.489 127.444 140.06 127.802 140.416C128.17 140.783 128.765 140.783 129.129 140.417C130.059 139.484 130.922 138.552 131.724 137.62C132.061 137.227 132.015 136.633 131.62 136.294C131.225 135.955 130.643 136.042 130.296 136.391C129.523 137.291 128.69 138.188 127.796 139.088C127.784 139.098 127.774 139.109 127.764 139.121Z" fill="#060606" fill-opacity="0.5"/>
</svg>
