<svg width="32" height="32" viewBox="0 0 32 32" fill="none" xmlns="http://www.w3.org/2000/svg">
<path d="M24.4445 10.8886C22.7779 11.4441 20.5559 9.22205 21.1114 7.55551M20.9766 7.6903L17.3862 11.2807C15.8253 12.8416 14.718 14.7974 14.1826 16.9389L14.0091 17.6329C13.955 17.8491 14.1509 18.045 14.3671 17.9909L15.0611 17.8174C17.2026 17.282 19.1584 16.1747 20.7193 14.6138L24.3097 11.0234C24.7517 10.5814 25 9.98192 25 9.35684C25 8.05519 23.9448 7 22.6432 7C22.0181 7 21.4186 7.24831 20.9766 7.6903Z" stroke="#060606" stroke-opacity="0.5" stroke-width="1.5"/>
<path d="M16 7C14.9767 7 13.9533 7.11763 12.9504 7.35288C10.173 8.00437 8.00437 10.173 7.35288 12.9504C6.88237 14.9563 6.88237 17.0437 7.35288 19.0496C8.00437 21.827 10.173 23.9956 12.9504 24.6471C14.9563 25.1176 17.0437 25.1176 19.0496 24.6471C21.827 23.9956 23.9956 21.827 24.6471 19.0496C24.8824 18.0466 25 17.0233 25 16" stroke="#060606" stroke-opacity="0.5" stroke-width="1.5" stroke-linecap="round"/>
</svg>
