<svg width="24" height="24" viewBox="0 0 24 24" fill="none" xmlns="http://www.w3.org/2000/svg">
<path d="M4.25055 4.471C4.56182 3.96599 5.10022 3.64522 5.69272 3.61595C7.17702 3.54262 10.1009 3.4128 12.1967 3.4128C14.2926 3.4128 17.2165 3.54262 18.7008 3.61595C19.2933 3.64522 19.8317 3.96599 20.1429 4.471V4.471C20.9097 5.71496 20.9084 7.28698 20.1417 8.53094V8.53094C19.8313 9.0344 19.2949 9.356 18.7043 9.38738C17.2211 9.4662 14.2943 9.60601 12.1967 9.60601C10.0992 9.60601 7.17241 9.4662 5.68922 9.38738C5.09864 9.356 4.56216 9.0344 4.25185 8.53095V8.53095C3.48512 7.28699 3.48382 5.71496 4.25055 4.471V4.471Z" stroke="#060606" stroke-opacity="0.5" stroke-width="1.5"/>
<path d="M4.25055 15.4614C4.56182 14.9564 5.10022 14.6357 5.69272 14.6064C7.17702 14.5331 10.1009 14.4032 12.1967 14.4032C14.2926 14.4032 17.2165 14.5331 18.7008 14.6064C19.2933 14.6357 19.8317 14.9564 20.1429 15.4614V15.4614C20.9097 16.7054 20.9084 18.2774 20.1417 19.5214V19.5214C19.8313 20.0248 19.2949 20.3464 18.7043 20.3778C17.2211 20.4566 14.2943 20.5964 12.1967 20.5964C10.0992 20.5964 7.17241 20.4566 5.68922 20.3778C5.09864 20.3464 4.56216 20.0248 4.25185 19.5214V19.5214C3.48512 18.2774 3.48382 16.7054 4.25055 15.4614V15.4614Z" stroke="#060606" stroke-opacity="0.5" stroke-width="1.5"/>
</svg>
