<svg width="130" height="40" viewBox="0 0 130 40" fill="none" xmlns="http://www.w3.org/2000/svg">
<rect x="0.5" y="0.5" width="129" height="39" rx="7.5" stroke="#EAEAEA"/>
<path d="M33.5005 19.9999L22.5005 19.9999M22.5005 19.9999L27.0887 23.9999M22.5005 19.9999L27.0887 15.9999" stroke="#060606" stroke-opacity="0.5" stroke-width="1.5" stroke-linecap="round" stroke-linejoin="round"/>
<path d="M49.2862 26V14.3636H53.4339C54.3393 14.3636 55.0893 14.5284 55.6839 14.858C56.2786 15.1875 56.7237 15.6383 57.0192 16.2102C57.3146 16.7784 57.4624 17.4186 57.4624 18.1307C57.4624 18.8466 57.3127 19.4905 57.0135 20.0625C56.718 20.6307 56.2711 21.0814 55.6726 21.4148C55.0779 21.7443 54.3298 21.9091 53.4283 21.9091H50.576V20.4205H53.2692C53.8411 20.4205 54.3052 20.322 54.6612 20.125C55.0173 19.9242 55.2786 19.6515 55.4453 19.3068C55.612 18.9621 55.6953 18.5701 55.6953 18.1307C55.6953 17.6913 55.612 17.3011 55.4453 16.9602C55.2786 16.6193 55.0154 16.3523 54.6555 16.1591C54.2995 15.9659 53.8298 15.8693 53.2464 15.8693H51.0419V26H49.2862ZM59.3842 26V17.2727H61.0263V18.6591H61.1172C61.2763 18.1894 61.5566 17.8201 61.9581 17.5511C62.3634 17.2784 62.8217 17.142 63.3331 17.142C63.4392 17.142 63.5642 17.1458 63.7081 17.1534C63.8558 17.161 63.9714 17.1705 64.0547 17.1818V18.8068C63.9865 18.7879 63.8653 18.767 63.6911 18.7443C63.5168 18.7178 63.3426 18.7045 63.1683 18.7045C62.7668 18.7045 62.4089 18.7898 62.0945 18.9602C61.7839 19.1269 61.5376 19.3598 61.3558 19.6591C61.174 19.9545 61.0831 20.2917 61.0831 20.6705V26H59.3842ZM68.9737 26.1761C68.1139 26.1761 67.3733 25.9924 66.7521 25.625C66.1347 25.2538 65.6574 24.733 65.3203 24.0625C64.987 23.3883 64.8203 22.5985 64.8203 21.6932C64.8203 20.7992 64.987 20.0114 65.3203 19.3295C65.6574 18.6477 66.1271 18.1155 66.7294 17.733C67.3355 17.3504 68.0438 17.1591 68.8544 17.1591C69.3468 17.1591 69.8241 17.2405 70.2862 17.4034C70.7483 17.5663 71.1631 17.822 71.5305 18.1705C71.898 18.5189 72.1877 18.9716 72.3999 19.5284C72.612 20.0814 72.718 20.7538 72.718 21.5455V22.1477H65.7805V20.875H71.0533C71.0533 20.428 70.9624 20.0322 70.7805 19.6875C70.5987 19.339 70.343 19.0644 70.0135 18.8636C69.6877 18.6629 69.3052 18.5625 68.8658 18.5625C68.3885 18.5625 67.9718 18.6799 67.6158 18.9148C67.2635 19.1458 66.9908 19.4489 66.7976 19.8239C66.6082 20.1951 66.5135 20.5985 66.5135 21.0341V22.0284C66.5135 22.6117 66.6158 23.108 66.8203 23.517C67.0286 23.9261 67.3184 24.2386 67.6896 24.4545C68.0608 24.6667 68.4946 24.7727 68.9908 24.7727C69.3127 24.7727 69.6063 24.7273 69.8714 24.6364C70.1366 24.5417 70.3658 24.4015 70.5589 24.2159C70.7521 24.0303 70.8999 23.8011 71.0021 23.5284L72.6101 23.8182C72.4813 24.2917 72.2502 24.7064 71.9169 25.0625C71.5874 25.4148 71.1726 25.6894 70.6726 25.8864C70.1764 26.0795 69.6101 26.1761 68.9737 26.1761ZM81.8189 17.2727L78.6541 26H76.8359L73.6655 17.2727H75.4893L77.6996 23.9886H77.7905L79.995 17.2727H81.8189ZM83.4155 26V17.2727H85.1143V26H83.4155ZM84.2734 15.9261C83.978 15.9261 83.7242 15.8277 83.5121 15.6307C83.3037 15.4299 83.1996 15.1913 83.1996 14.9148C83.1996 14.6345 83.3037 14.3958 83.5121 14.1989C83.7242 13.9981 83.978 13.8977 84.2734 13.8977C84.5689 13.8977 84.8208 13.9981 85.0291 14.1989C85.2412 14.3958 85.3473 14.6345 85.3473 14.9148C85.3473 15.1913 85.2412 15.4299 85.0291 15.6307C84.8208 15.8277 84.5689 15.9261 84.2734 15.9261ZM91.076 26.1761C90.2578 26.1761 89.5438 25.9886 88.9339 25.6136C88.3241 25.2386 87.8506 24.714 87.5135 24.0398C87.1764 23.3655 87.0078 22.5777 87.0078 21.6761C87.0078 20.7708 87.1764 19.9792 87.5135 19.3011C87.8506 18.6231 88.3241 18.0966 88.9339 17.7216C89.5438 17.3466 90.2578 17.1591 91.076 17.1591C91.8942 17.1591 92.6082 17.3466 93.218 17.7216C93.8279 18.0966 94.3014 18.6231 94.6385 19.3011C94.9756 19.9792 95.1442 20.7708 95.1442 21.6761C95.1442 22.5777 94.9756 23.3655 94.6385 24.0398C94.3014 24.714 93.8279 25.2386 93.218 25.6136C92.6082 25.9886 91.8942 26.1761 91.076 26.1761ZM91.0817 24.75C91.612 24.75 92.0514 24.6098 92.3999 24.3295C92.7483 24.0492 93.0059 23.6761 93.1726 23.2102C93.343 22.7443 93.4283 22.2311 93.4283 21.6705C93.4283 21.1136 93.343 20.6023 93.1726 20.1364C93.0059 19.6667 92.7483 19.2898 92.3999 19.0057C92.0514 18.7216 91.612 18.5795 91.0817 18.5795C90.5476 18.5795 90.1044 18.7216 89.7521 19.0057C89.4036 19.2898 89.1442 19.6667 88.9737 20.1364C88.8071 20.6023 88.7237 21.1136 88.7237 21.6705C88.7237 22.2311 88.8071 22.7443 88.9737 23.2102C89.1442 23.6761 89.4036 24.0492 89.7521 24.3295C90.1044 24.6098 90.5476 24.75 91.0817 24.75ZM102.569 22.3807V17.2727H104.273V26H102.603V24.4886H102.512C102.311 24.9545 101.989 25.3428 101.546 25.6534C101.107 25.9602 100.559 26.1136 99.9041 26.1136C99.3435 26.1136 98.8473 25.9905 98.4155 25.7443C97.9875 25.4943 97.6503 25.125 97.4041 24.6364C97.1617 24.1477 97.0405 23.5436 97.0405 22.8239V17.2727H98.7393V22.6193C98.7393 23.214 98.9041 23.6875 99.2337 24.0398C99.5632 24.392 99.9912 24.5682 100.518 24.5682C100.836 24.5682 101.152 24.4886 101.467 24.3295C101.785 24.1705 102.048 23.9299 102.256 23.608C102.469 23.286 102.573 22.8769 102.569 22.3807ZM113.096 19.4034L111.556 19.6761C111.492 19.4792 111.389 19.2917 111.249 19.1136C111.113 18.9356 110.927 18.7898 110.692 18.6761C110.458 18.5625 110.164 18.5057 109.812 18.5057C109.331 18.5057 108.929 18.6136 108.607 18.8295C108.285 19.0417 108.124 19.3163 108.124 19.6534C108.124 19.9451 108.232 20.1799 108.448 20.358C108.664 20.536 109.013 20.6818 109.494 20.7955L110.88 21.1136C111.683 21.2992 112.281 21.5852 112.675 21.9716C113.069 22.358 113.266 22.8598 113.266 23.4773C113.266 24 113.115 24.4659 112.812 24.875C112.513 25.2803 112.094 25.5985 111.556 25.8295C111.022 26.0606 110.403 26.1761 109.698 26.1761C108.721 26.1761 107.924 25.9678 107.306 25.5511C106.689 25.1307 106.31 24.5341 106.17 23.7614L107.812 23.5114C107.914 23.9394 108.124 24.2633 108.442 24.483C108.761 24.6989 109.175 24.8068 109.687 24.8068C110.244 24.8068 110.689 24.6913 111.022 24.4602C111.355 24.2254 111.522 23.9394 111.522 23.6023C111.522 23.3295 111.42 23.1004 111.215 22.9148C111.014 22.7292 110.706 22.589 110.289 22.4943L108.812 22.1705C107.997 21.9848 107.395 21.6894 107.005 21.2841C106.619 20.8788 106.425 20.3655 106.425 19.7443C106.425 19.2292 106.569 18.7784 106.857 18.392C107.145 18.0057 107.543 17.7045 108.05 17.4886C108.558 17.2689 109.139 17.1591 109.795 17.1591C110.738 17.1591 111.48 17.3636 112.022 17.7727C112.564 18.178 112.922 18.7216 113.096 19.4034Z" fill="#060606" fill-opacity="0.5"/>
</svg>
