<svg width="124" height="40" viewBox="0 0 124 40" fill="none" xmlns="http://www.w3.org/2000/svg">
<g clip-path="url(#clip0_14_31099)">
<rect width="40" height="40" rx="8" fill="#FD5900"/>
<path d="M21.5337 14.8182V25H19.9925V16.3594H19.9329L17.4968 17.9503V16.4787L20.0373 14.8182H21.5337Z" fill="white"/>
</g>
<g clip-path="url(#clip1_14_31099)">
<path d="M58.6864 25V23.8864L62.1317 20.3168C62.4996 19.929 62.8029 19.5893 63.0415 19.2976C63.2835 19.0026 63.4641 18.7225 63.5835 18.4574C63.7028 18.1922 63.7624 17.9105 63.7624 17.6122C63.7624 17.2741 63.6829 16.9825 63.5238 16.7372C63.3647 16.4886 63.1476 16.2981 62.8725 16.1655C62.5974 16.0296 62.2875 15.9616 61.9428 15.9616C61.5782 15.9616 61.2601 16.0362 60.9883 16.1854C60.7165 16.3345 60.5077 16.545 60.3619 16.8168C60.216 17.0885 60.1431 17.4067 60.1431 17.7713H58.6765C58.6765 17.1515 58.819 16.6096 59.104 16.1456C59.3891 15.6816 59.7802 15.322 60.2773 15.0668C60.7745 14.8082 61.3396 14.679 61.9727 14.679C62.6123 14.679 63.1758 14.8066 63.663 15.0618C64.1535 15.3137 64.5363 15.6584 64.8114 16.0959C65.0865 16.5301 65.2241 17.0206 65.2241 17.5675C65.2241 17.9453 65.1528 18.3149 65.0103 18.6761C64.8711 19.0374 64.6275 19.4401 64.2795 19.8842C63.9315 20.325 63.4476 20.8603 62.8278 21.4901L60.8043 23.608V23.6825H65.3881V25H58.6864Z" fill="#667085"/>
</g>
<g clip-path="url(#clip2_14_31099)">
<path d="M104.012 25.1392C103.33 25.1392 102.72 25.0215 102.183 24.7862C101.649 24.5509 101.227 24.2244 100.915 23.8068C100.607 23.3859 100.441 22.8987 100.418 22.3452H101.979C101.999 22.6468 102.1 22.9086 102.282 23.1307C102.468 23.3494 102.71 23.5185 103.008 23.6378C103.306 23.7571 103.638 23.8168 104.002 23.8168C104.404 23.8168 104.758 23.7472 105.066 23.608C105.378 23.4687 105.622 23.2749 105.797 23.0263C105.973 22.7744 106.061 22.4844 106.061 22.1562C106.061 21.8149 105.973 21.5149 105.797 21.2564C105.625 20.9946 105.371 20.7891 105.037 20.6399C104.705 20.4908 104.304 20.4162 103.833 20.4162H102.973V19.1634H103.833C104.211 19.1634 104.543 19.0954 104.828 18.9595C105.116 18.8236 105.342 18.6347 105.504 18.3928C105.666 18.1475 105.748 17.8608 105.748 17.5327C105.748 17.2178 105.676 16.9444 105.534 16.7124C105.395 16.477 105.196 16.2931 104.937 16.1605C104.682 16.0279 104.38 15.9616 104.032 15.9616C103.701 15.9616 103.391 16.023 103.103 16.1456C102.818 16.2649 102.586 16.4373 102.407 16.6626C102.228 16.8847 102.132 17.1515 102.118 17.4631H100.632C100.648 16.9129 100.811 16.429 101.119 16.0114C101.431 15.5937 101.842 15.2673 102.352 15.032C102.862 14.7966 103.429 14.679 104.052 14.679C104.705 14.679 105.269 14.8066 105.743 15.0618C106.22 15.3137 106.588 15.6501 106.846 16.071C107.108 16.492 107.237 16.9527 107.234 17.4531C107.237 18.0232 107.078 18.5071 106.757 18.9048C106.439 19.3026 106.014 19.5694 105.484 19.7053V19.7848C106.16 19.8875 106.684 20.156 107.055 20.5902C107.43 21.0244 107.615 21.563 107.612 22.206C107.615 22.7661 107.459 23.2682 107.145 23.7124C106.833 24.1565 106.407 24.5062 105.867 24.7614C105.327 25.0133 104.708 25.1392 104.012 25.1392Z" fill="#667085"/>
</g>
<defs>
<clipPath id="clip0_14_31099">
<rect width="40" height="40" rx="8" fill="white"/>
</clipPath>
<clipPath id="clip1_14_31099">
<rect x="42" width="40" height="40" rx="8" fill="white"/>
</clipPath>
<clipPath id="clip2_14_31099">
<rect x="84" width="40" height="40" rx="8" fill="white"/>
</clipPath>
</defs>
</svg>
